<svg width="30" height="30" viewBox="0 0 100 100" fill="none" xmlns="http://www.w3.org/2000/svg">
<rect width="100" height="100" fill="none"/>
<path d="M29.4444 70.5556H37.6667V50H29.4444V70.5556ZM62.3333 70.5556H70.5556V29.4444H62.3333V70.5556ZM45.8889 70.5556H54.1111V58.2222H45.8889V70.5556ZM45.8889 50H54.1111V41.7778H45.8889V50ZM21.2222 87C18.9611 87 17.0255 86.1949 15.4153 84.5847C13.8051 82.9745 13 81.0389 13 78.7778V21.2222C13 18.9611 13.8051 17.0255 15.4153 15.4153C17.0255 13.8051 18.9611 13 21.2222 13H78.7778C81.0389 13 82.9745 13.8051 84.5847 15.4153C86.1949 17.0255 87 18.9611 87 21.2222V78.7778C87 81.0389 86.1949 82.9745 84.5847 84.5847C82.9745 86.1949 81.0389 87 78.7778 87H21.2222ZM21.2222 78.7778H78.7778V21.2222H21.2222V78.7778Z" fill="#1D1D1B"/>
</svg>
