<svg width="100" height="100" viewBox="0 0 100 100" fill="none" xmlns="http://www.w3.org/2000/svg">
<path d="M50.0913 89.0244L45.3419 77.7715C44.4703 77.69 43.6267 77.5349 42.8114 77.3063C41.996 77.0777 41.1871 76.8144 40.3848 76.5165L30.8842 84.1239L16.0144 69.632L23.3428 59.8835C23.1621 59.4754 23.0159 59.0739 22.9043 58.679L22.2084 56.2188C22.0968 55.824 22.011 55.4054 21.9512 54.9631L10.6025 50.497L15.6792 30.3637L27.757 31.8681C28.2844 31.1941 28.8507 30.5419 29.4557 29.9115C30.0608 29.2812 30.683 28.7116 31.3224 28.2027L29.4744 16.1292L49.4209 10.4877L54.1702 21.7407C55.0419 21.8222 55.8854 21.9772 56.7008 22.2059C57.5161 22.4345 58.325 22.6978 59.1273 22.9957L68.628 15.3882L83.4977 29.8801L76.1693 39.6286C76.35 40.0368 76.4962 40.4382 76.6079 40.8331L77.3037 43.2933C77.4154 43.6882 77.4709 44.1153 77.4703 44.5747L88.819 49.0408L83.7423 69.1741L71.7552 67.644C71.2277 68.318 70.6615 68.9702 70.0564 69.6006C69.4514 70.231 68.8291 70.8006 68.1897 71.3095L70.0377 83.383L50.0913 89.0244ZM54.3762 79.9399L61.5388 77.9141L60.0764 67.8965C61.8127 66.8806 63.3486 65.6753 64.684 64.2807C66.0195 62.8861 67.1631 61.3326 68.1149 59.6201L78.1474 60.8173L79.931 53.6211L70.4586 49.9037C70.5203 48.9678 70.4784 48.0119 70.333 47.0362C70.1876 46.0604 69.9774 45.0866 69.7025 44.1146C69.4276 43.1427 69.0966 42.203 68.7094 41.2957C68.3222 40.3883 67.8573 39.5521 67.3145 38.7872L73.4366 30.6591L68.1482 25.4631L60.2547 31.8288C58.5298 30.8077 56.7333 30.0529 54.8652 29.5643C52.9972 29.0758 51.0575 28.8535 49.0463 28.8975L45.1359 19.5723L37.9734 21.598L39.4358 31.6157C37.6995 32.6316 36.1636 33.8368 34.8281 35.2314C33.4927 36.626 32.349 38.1796 31.3972 39.8921L21.3647 38.6948L19.5812 45.891L29.0278 49.5173C28.9833 50.514 29.0294 51.485 29.1663 52.4304C29.3031 53.3758 29.5175 54.3648 29.8096 55.3975C30.0845 56.3694 30.4112 57.2939 30.7898 58.1709C31.1684 59.0479 31.6377 59.8993 32.1976 60.725L26.0755 68.853L31.3639 74.049L39.2574 67.6834C40.9823 68.7045 42.7788 69.4593 44.6469 69.9478C46.515 70.4363 48.4546 70.6586 50.4658 70.6146L54.3762 79.9399ZM53.5454 62.4615C57.0511 61.4699 59.6909 59.3784 61.4647 56.1869C63.2384 52.9954 63.6271 49.6381 62.6306 46.1148C61.6341 42.5915 59.5446 39.935 56.362 38.1454C53.1794 36.3557 49.8352 35.9566 46.3294 36.9481C42.7633 37.9567 40.1084 40.0525 38.3648 43.2355C36.6213 46.4184 36.2477 49.7715 37.2442 53.2948C38.2407 56.8181 40.3151 59.4788 43.4675 61.277C46.6199 63.0753 49.9792 63.4701 53.5454 62.4615Z" fill="#E0E0E0"/>
</svg>
