<svg width="100" height="100" viewBox="0 0 100 100" fill="none" xmlns="http://www.w3.org/2000/svg">
<rect width="100" height="100" fill="none"/>
<path d="M81.6478 49.7224L81.7583 49.5L81.6478 49.2776C78.6526 43.2479 74.3205 38.4522 68.6578 34.899C62.993 31.3444 56.77 29.5667 50 29.5667C43.23 29.5667 37.007 31.3444 31.3422 34.899C25.6795 38.4522 21.3474 43.2479 18.3522 49.2776L18.2417 49.5L18.3522 49.7224C21.3474 55.7521 25.6795 60.5478 31.3422 64.101C37.007 67.6556 43.23 69.4333 50 69.4333C56.77 69.4333 62.993 67.6556 68.6578 64.101C74.3205 60.5478 78.6526 55.7521 81.6478 49.7224ZM60.9482 60.4083C57.9409 63.4054 54.3013 64.9 50 64.9C45.6987 64.9 42.0591 63.4054 39.0518 60.4083C36.0446 57.4114 34.5455 53.785 34.5455 49.5C34.5455 45.215 36.0446 41.5886 39.0518 38.5917C42.0591 35.5946 45.6987 34.1 50 34.1C54.3013 34.1 57.9409 35.5946 60.9482 38.5917C63.9554 41.5886 65.4545 45.215 65.4545 49.5C65.4545 53.785 63.9554 57.4114 60.9482 60.4083ZM42.8664 56.6117C44.8227 58.5613 47.2104 59.54 50 59.54C52.7896 59.54 55.1773 58.5613 57.1336 56.6117C59.09 54.662 60.0727 52.2816 60.0727 49.5C60.0727 46.7184 59.09 44.338 57.1336 42.3883C55.1773 40.4387 52.7896 39.46 50 39.46C47.2104 39.46 44.8227 40.4387 42.8664 42.3883C40.91 44.338 39.9273 46.7184 39.9273 49.5C39.9273 52.2816 40.91 54.662 42.8664 56.6117ZM50 75.5C41.4718 75.5 33.7105 73.1298 26.703 68.3868C19.7505 63.681 14.6977 57.3894 11.5381 49.5C14.6977 41.6106 19.7505 35.319 26.703 30.6132C33.7105 25.8702 41.4718 23.5 50 23.5C58.5282 23.5 66.2895 25.8702 73.297 30.6132C80.2495 35.319 85.3023 41.6106 88.4619 49.5C85.3023 57.3894 80.2495 63.681 73.297 68.3868C66.2895 73.1298 58.5282 75.5 50 75.5Z" fill="#1D1D1B" stroke="#F2F2F2"/>
</svg>
