<svg width="100" height="100" viewBox="0 0 100 100" fill="none" xmlns="http://www.w3.org/2000/svg">
<rect width="100" height="100" fill="none"/>
<path d="M21.1 43H21.9299C21.8756 43.0483 21.8222 43.0984 21.7696 43.1502C20.9899 43.9189 20.6 44.8802 20.6 46V60V60.5H21.1H28.2H28.7V60V53.5H70.3V60V60.5H70.8H77.9H78.4V60V46C78.4 44.8802 78.0101 43.9189 77.2304 43.1502C77.1778 43.0984 77.1244 43.0483 77.0701 43H77.9V42H74.35H24.65H21.1V43ZM34.8 25V35H28.7V18.5H70.3V35H64.2V25V24.5H63.7H35.3H34.8V25ZM84.5 46V66.5H70.8H70.3V67V80.5H28.7V67V66.5H28.2H14.5V46C14.5 43.1555 15.484 40.7925 17.4547 38.8773C19.4297 36.958 21.8182 36 24.65 36H27.7H28.2H35.3H35.8H63.2H63.7H70.8H71.3H74.35C77.2438 36 79.6447 36.9598 81.5871 38.8748C83.5291 40.7894 84.5 43.1532 84.5 46ZM63.7 74.5H64.2V74V60V59.5H63.7H35.3H34.8V60V74V74.5H35.3H63.7ZM72.9783 49.8877C72.3968 50.461 71.6821 50.75 70.8 50.75C69.9179 50.75 69.2032 50.461 68.6217 49.8877C68.0405 49.3147 67.75 48.6135 67.75 47.75C67.75 46.8865 68.0405 46.1853 68.6217 45.6123C69.2032 45.039 69.9179 44.75 70.8 44.75C71.6821 44.75 72.3968 45.039 72.9783 45.6123C73.5595 46.1853 73.85 46.8865 73.85 47.75C73.85 48.6135 73.5595 49.3147 72.9783 49.8877Z" fill="#1D1D1B" stroke="#F2F2F2"/>
</svg>
