<svg width="30" height="30" viewBox="0 0 100 100" fill="none" xmlns="http://www.w3.org/2000/svg">
<rect width="100" height="100" fill="none"/>
<path d="M21.3131 87C17.8297 87 15.3537 85.4412 13.8852 82.3236C12.4167 79.206 12.7753 76.3111 14.961 73.6389L37.7056 45.8889V21.2222H33.6075C32.4463 21.2222 31.473 20.8282 30.6876 20.0403C29.9021 19.2523 29.5093 18.2759 29.5093 17.1111C29.5093 15.9463 29.9021 14.9699 30.6876 14.1819C31.473 13.394 32.4463 13 33.6075 13H66.3925C67.5537 13 68.527 13.394 69.3124 14.1819C70.0979 14.9699 70.4907 15.9463 70.4907 17.1111C70.4907 18.2759 70.0979 19.2523 69.3124 20.0403C68.527 20.8282 67.5537 21.2222 66.3925 21.2222H62.2944V45.8889L85.039 73.6389C87.2247 76.3111 87.5833 79.206 86.1148 82.3236C84.6463 85.4412 82.1703 87 78.6869 87H21.3131ZM21.3131 78.7778H78.6869L54.0981 48.7667V21.2222H45.9019V48.7667L21.3131 78.7778Z" fill="#1D1D1B"/>
</svg>
