<svg width="100" height="100" viewBox="0 0 100 100" fill="none" xmlns="http://www.w3.org/2000/svg">
<rect width="100" height="100" fill="none"/>
<path d="M39.8756 87L38.403 75.16C37.6053 74.8517 36.8536 74.4817 36.148 74.05C35.4424 73.6183 34.7521 73.1558 34.0771 72.6625L23.1244 77.2875L13 59.7125L22.4801 52.4975C22.4187 52.0658 22.3881 51.6496 22.3881 51.2488V48.7513C22.3881 48.3504 22.4187 47.9342 22.4801 47.5025L13 40.2875L23.1244 22.7125L34.0771 27.3375C34.7521 26.8442 35.4577 26.3817 36.194 25.95C36.9303 25.5183 37.6667 25.1483 38.403 24.84L39.8756 13H60.1244L61.597 24.84C62.3947 25.1483 63.1464 25.5183 63.852 25.95C64.5576 26.3817 65.2479 26.8442 65.9229 27.3375L76.8756 22.7125L87 40.2875L77.5199 47.5025C77.5813 47.9342 77.6119 48.3504 77.6119 48.7513V51.2488C77.6119 51.6496 77.5506 52.0658 77.4279 52.4975L86.908 59.7125L76.7836 77.2875L65.9229 72.6625C65.2479 73.1558 64.5423 73.6183 63.806 74.05C63.0697 74.4817 62.3333 74.8517 61.597 75.16L60.1244 87H39.8756ZM46.3184 79.6H53.5896L54.8781 69.795C56.7803 69.3017 58.5444 68.5771 60.1704 67.6213C61.7964 66.6654 63.2844 65.5092 64.6343 64.1525L73.7463 67.945L77.3358 61.655L69.4204 55.6425C69.7272 54.7792 69.942 53.8696 70.0647 52.9138C70.1874 51.9579 70.2488 50.9867 70.2488 50C70.2488 49.0133 70.1874 48.0421 70.0647 47.0863C69.942 46.1304 69.7272 45.2208 69.4204 44.3575L77.3358 38.345L73.7463 32.055L64.6343 35.94C63.2844 34.5217 61.7964 33.3346 60.1704 32.3788C58.5444 31.4229 56.7803 30.6983 54.8781 30.205L53.6816 20.4H46.4104L45.1219 30.205C43.2197 30.6983 41.4556 31.4229 39.8296 32.3788C38.2036 33.3346 36.7156 34.4908 35.3657 35.8475L26.2537 32.055L22.6642 38.345L30.5796 44.265C30.2728 45.19 30.058 46.115 29.9353 47.04C29.8126 47.965 29.7512 48.9517 29.7512 50C29.7512 50.9867 29.8126 51.9425 29.9353 52.8675C30.058 53.7925 30.2728 54.7175 30.5796 55.6425L22.6642 61.655L26.2537 67.945L35.3657 64.06C36.7156 65.4783 38.2036 66.6654 39.8296 67.6213C41.4556 68.5771 43.2197 69.3017 45.1219 69.795L46.3184 79.6ZM50.1841 62.95C53.743 62.95 56.7803 61.6858 59.296 59.1575C61.8118 56.6292 63.0697 53.5767 63.0697 50C63.0697 46.4233 61.8118 43.3708 59.296 40.8425C56.7803 38.3142 53.743 37.05 50.1841 37.05C46.5638 37.05 43.5112 38.3142 41.0261 40.8425C38.541 43.3708 37.2985 46.4233 37.2985 50C37.2985 53.5767 38.541 56.6292 41.0261 59.1575C43.5112 61.6858 46.5638 62.95 50.1841 62.95Z" fill="#5A5A5A"/>
</svg>
