<svg width="100" height="100" viewBox="0 0 100 100" fill="none" xmlns="http://www.w3.org/2000/svg">
<rect width="100" height="100" fill="none"/>
<path d="M37.2293 69.4998L36.9538 70.6276L37.9625 70.0528L49.9984 63.1948L62.035 70.1435L63.0462 70.7273L62.7709 69.5927L59.6276 56.6354L70.2063 47.9925L71.1633 47.2106L69.9319 47.107L55.9898 45.9343L50.4557 33.6758L50.0017 32.6701L49.5449 33.6746L44.0111 45.8421L30.0681 47.0149L28.8456 47.1177L29.7917 47.8987L40.3724 56.6333L37.2293 69.4998ZM26.6795 83.9903L32.7407 59.2373L32.8156 58.9313L32.5718 58.7316L12.2741 42.1077L39.1209 39.9062L39.4156 39.8821L39.5364 39.6121L50 16.2243L60.4636 39.6121L60.5844 39.8821L60.8791 39.9062L87.7259 42.1077L67.4282 58.7316L67.1844 58.9313L67.2593 59.2373L73.3205 83.9903L50.2476 70.8419L50 70.7008L49.7524 70.8419L26.6795 83.9903Z" fill="#1D1D1B" stroke="#F2F2F2"/>
</svg>
