<svg width="30" height="30" viewBox="0 0 100 100" fill="none" xmlns="http://www.w3.org/2000/svg">
<rect width="100" height="100" fill="none"/>
<path d="M50 50C44.9125 50 40.5573 48.1885 36.9344 44.5656C33.3115 40.9427 31.5 36.5875 31.5 31.5C31.5 26.4125 33.3115 22.0573 36.9344 18.4344C40.5573 14.8115 44.9125 13 50 13C55.0875 13 59.4427 14.8115 63.0656 18.4344C66.6885 22.0573 68.5 26.4125 68.5 31.5C68.5 36.5875 66.6885 40.9427 63.0656 44.5656C59.4427 48.1885 55.0875 50 50 50ZM13 87V74.05C13 71.4292 13.6745 69.0203 15.0234 66.8234C16.3724 64.6266 18.1646 62.95 20.4 61.7938C25.1792 59.4042 30.0354 57.612 34.9688 56.4172C39.9021 55.2224 44.9125 54.625 50 54.625C55.0875 54.625 60.0979 55.2224 65.0313 56.4172C69.9646 57.612 74.8208 59.4042 79.6 61.7938C81.8354 62.95 83.6276 64.6266 84.9766 66.8234C86.3255 69.0203 87 71.4292 87 74.05V87H13ZM22.25 77.75H77.75V74.05C77.75 73.2021 77.538 72.4313 77.1141 71.7375C76.6901 71.0438 76.1313 70.5042 75.4375 70.1188C71.275 68.0375 67.074 66.4766 62.8344 65.4359C58.5948 64.3953 54.3167 63.875 50 63.875C45.6833 63.875 41.4052 64.3953 37.1656 65.4359C32.926 66.4766 28.725 68.0375 24.5625 70.1188C23.8688 70.5042 23.3099 71.0438 22.8859 71.7375C22.462 72.4313 22.25 73.2021 22.25 74.05V77.75ZM50 40.75C52.5438 40.75 54.7214 39.8443 56.5328 38.0328C58.3443 36.2214 59.25 34.0438 59.25 31.5C59.25 28.9563 58.3443 26.7786 56.5328 24.9672C54.7214 23.1557 52.5438 22.25 50 22.25C47.4563 22.25 45.2786 23.1557 43.4672 24.9672C41.6557 26.7786 40.75 28.9563 40.75 31.5C40.75 34.0438 41.6557 36.2214 43.4672 38.0328C45.2786 39.8443 47.4563 40.75 50 40.75Z" fill="#1D1D1B"/>
</svg>
